<svg version="1.2" xmlns="http://www.w3.org/2000/svg" viewBox="0 0 50 50" width="50" height="50"><defs><clipPath clipPathUnits="userSpaceOnUse" id="cp1"><path d="m21 15.99h8.6v8.58h-8.6z"/></clipPath><clipPath clipPathUnits="userSpaceOnUse" id="cp2"><path d="m25.3 24.57c-2.38 0-4.3-1.92-4.3-4.29 0-2.37 1.92-4.29 4.3-4.29 2.38 0 4.3 1.92 4.3 4.29 0 2.37-1.92 4.29-4.3 4.29z"/></clipPath><clipPath clipPathUnits="userSpaceOnUse" id="cp3"><path d="m22.95 17.94h4.7v4.69h-4.7z"/></clipPath><clipPath clipPathUnits="userSpaceOnUse" id="cp4"><path d="m25.3 22.63c-1.3 0-2.35-1.05-2.35-2.35 0-1.29 1.05-2.34 2.35-2.34 1.3 0 2.35 1.05 2.35 2.34 0 1.3-1.05 2.35-2.35 2.35z"/></clipPath><clipPath clipPathUnits="userSpaceOnUse" id="cp5"><path d="m16.38 15.99h2.7v2.7h-2.7z"/></clipPath><clipPath clipPathUnits="userSpaceOnUse" id="cp6"><path d="m17.73 18.69c-0.74 0-1.35-0.6-1.35-1.35 0-0.74 0.61-1.35 1.35-1.35 0.75 0 1.35 0.61 1.35 1.35 0 0.75-0.6 1.35-1.35 1.35z"/></clipPath></defs><style>tspan{white-space:pre}.a{fill:none;stroke:#e4c590;stroke-width:.4}.b{fill:none;stroke:#e4c590;stroke-linecap:round;stroke-width:.2}.c{fill:none;stroke:#e4c590;stroke-width:.2}.d{fill:#fff}.e{fill:#e4c590}</style><g clip-path="url(#cp1)"><g clip-path="url(#cp2)"><path class="a" d="m25.3 24.6c-2.4 0-4.3-1.9-4.3-4.3 0-2.4 1.9-4.3 4.3-4.3 2.4 0 4.3 1.9 4.3 4.3 0 2.4-1.9 4.3-4.3 4.3z"/></g></g><g clip-path="url(#cp3)"><g clip-path="url(#cp4)"><path class="a" d="m25.3 22.6c-1.3 0-2.4-1-2.4-2.3 0-1.3 1.1-2.4 2.4-2.4 1.3 0 2.3 1.1 2.3 2.4 0 1.3-1 2.3-2.3 2.3z"/></g></g><g clip-path="url(#cp5)"><g clip-path="url(#cp6)"><path class="a" d="m17.7 18.7c-0.7 0-1.3-0.6-1.3-1.4 0-0.7 0.6-1.3 1.3-1.3 0.8 0 1.4 0.6 1.4 1.3 0 0.8-0.6 1.4-1.4 1.4z"/></g></g><path class="b" d="m17.7 18.6v5.9"/><path class="b" d="m31.7 16.1v2.5"/><path class="b" d="m32.6 16.1v8.4"/><path class="b" d="m33.5 16.1v2.5"/><path class="c" d="m31.6 18.6h2"/><path class="d" d="m10.4 28.3v-1.7h0.2v1.6h1.1v0.1z"/><path class="d" d="m12.3 27.1v-0.5h0.2l-0.1 0.5z"/><path fill-rule="evenodd" class="d" d="m14.9 27.4q0 0.2 0 0.4-0.1 0.2-0.2 0.3-0.1 0.1-0.3 0.2-0.2 0.1-0.4 0.1-0.2 0-0.3-0.1-0.2-0.1-0.3-0.2-0.1-0.1-0.2-0.3-0.1-0.2-0.1-0.4 0-0.1 0.1-0.3 0.1-0.2 0.2-0.3 0.1-0.1 0.3-0.2 0.1-0.1 0.3-0.1 0.2 0 0.4 0.1 0.2 0.1 0.3 0.2 0.1 0.1 0.2 0.3 0 0.2 0 0.3zm-0.2 0q0-0.1 0-0.2-0.1-0.2-0.2-0.3-0.1-0.1-0.2-0.1-0.1-0.1-0.3-0.1-0.1 0-0.3 0.1-0.1 0-0.2 0.1-0.1 0.1-0.1 0.3-0.1 0.1-0.1 0.2 0 0.2 0.1 0.3 0 0.2 0.1 0.3 0.1 0.1 0.2 0.1 0.2 0.1 0.3 0.1 0.2 0 0.3-0.1 0.1 0 0.2-0.1 0.1-0.1 0.2-0.3 0-0.1 0-0.3z"/><path class="d" d="m15.5 28l0.1-0.1q0.1 0.1 0.3 0.2 0.1 0.1 0.3 0.1 0.2 0 0.4-0.1 0.1-0.1 0.1-0.3 0-0.1-0.1-0.2-0.1 0-0.3-0.1h-0.3q-0.2-0.1-0.4-0.2-0.1-0.1-0.1-0.3 0-0.2 0.2-0.3 0.2-0.2 0.4-0.2 0.2 0 0.4 0.1 0.2 0.1 0.3 0.2l-0.1 0.1q-0.1-0.1-0.3-0.1-0.1-0.1-0.3-0.1-0.2 0-0.3 0.1-0.1 0.1-0.1 0.2 0 0.1 0.1 0.2 0.1 0.1 0.3 0.1h0.2q0.3 0.1 0.4 0.2 0.2 0.1 0.2 0.3 0 0.1-0.1 0.2 0 0.1-0.1 0.2-0.1 0.1-0.2 0.1-0.1 0.1-0.3 0.1-0.2 0-0.4-0.1-0.2-0.1-0.3-0.3z"/><path class="d" d="m17.4 26.7v-0.1h1.5v0.1h-0.7v1.6h-0.2v-1.6z"/><path fill-rule="evenodd" class="d" d="m19.5 28.3v-1.7h0.7q0.3 0 0.4 0.1 0.2 0.1 0.2 0.4 0 0.1-0.1 0.3-0.1 0.1-0.3 0.1l0.4 0.8h-0.2l-0.4-0.7h-0.5v0.7zm0.7-1.6h-0.5v0.7h0.5q0.2 0 0.3-0.1 0.1-0.1 0.1-0.2 0-0.2-0.1-0.3-0.1-0.1-0.3-0.1z"/><path class="d" d="m21.5 26.6h0.2v1.7h-0.2z"/><path class="d" d="m23.3 28.2q0.2 0 0.3-0.1 0.2 0 0.3-0.2l0.1 0.2q-0.2 0.1-0.3 0.2-0.2 0.1-0.4 0.1-0.2 0-0.4-0.1-0.1-0.1-0.3-0.2-0.1-0.1-0.2-0.3 0-0.2 0-0.4 0-0.1 0-0.3 0.1-0.2 0.2-0.3 0.2-0.1 0.3-0.2 0.2-0.1 0.4-0.1 0.2 0 0.4 0.1 0.2 0.1 0.3 0.2l-0.1 0.2q-0.1-0.2-0.3-0.2-0.2-0.1-0.3-0.1-0.2 0-0.3 0.1-0.1 0-0.2 0.1-0.1 0.1-0.2 0.3 0 0.1 0 0.2 0 0.2 0 0.3 0.1 0.2 0.2 0.3 0.1 0.1 0.2 0.1 0.1 0.1 0.3 0.1z"/><path fill-rule="evenodd" class="d" d="m24.5 28.3l0.7-1.7h0.2l0.8 1.7h-0.2l-0.3-0.5h-0.8l-0.2 0.5zm0.5-0.7h0.7l-0.4-0.9z"/><path class="d" d="m29.1 27.6q0 0.3-0.2 0.6-0.2 0.2-0.5 0.2-0.4 0-0.6-0.2-0.2-0.3-0.2-0.6v-1h0.2v1q0 0.3 0.2 0.4 0.1 0.2 0.4 0.2 0.2 0 0.4-0.2 0.1-0.1 0.1-0.4v-1h0.2z"/><path fill-rule="evenodd" class="d" d="m29.8 26.6h0.8q0.2 0 0.4 0.1 0.1 0.1 0.1 0.3 0 0.2 0 0.3-0.1 0.1-0.2 0.1 0.1 0.1 0.2 0.2 0.1 0.1 0.1 0.2 0 0.3-0.2 0.4-0.1 0.1-0.4 0.1h-0.8zm0.8 0.2h-0.6v0.6h0.6q0.1 0 0.2-0.1 0.1-0.1 0.1-0.2 0-0.1-0.1-0.2-0.1-0.1-0.2-0.1zm0 1.4q0.2 0 0.3-0.1 0.1 0 0.1-0.2 0-0.2-0.1-0.2-0.1-0.1-0.3-0.1h-0.6v0.6z"/><path fill-rule="evenodd" class="d" d="m31.9 28.3v-1.7h0.7q0.3 0 0.5 0.1 0.1 0.1 0.1 0.4 0 0.1-0.1 0.3-0.1 0.1-0.3 0.1l0.4 0.8h-0.2l-0.3-0.7h-0.6v0.7zm0.7-1.6h-0.5v0.7h0.5q0.2 0 0.3-0.1 0.1-0.1 0.1-0.2 0-0.2-0.1-0.3-0.1-0.1-0.3-0.1z"/><path class="d" d="m33.9 26.6h0.2v1.7h-0.2z"/><path fill-rule="evenodd" class="d" d="m34.7 28.3l0.7-1.7h0.3l0.7 1.7h-0.2l-0.3-0.5h-0.8l-0.2 0.5zm0.5-0.7h0.7l-0.4-0.9z"/><path class="d" d="m37.8 28.2q0.2 0 0.3-0.1 0.2 0 0.3-0.2l0.1 0.2q-0.1 0.1-0.3 0.2-0.2 0.1-0.4 0.1-0.2 0-0.4-0.1-0.1-0.1-0.3-0.2-0.1-0.1-0.1-0.3-0.1-0.2-0.1-0.4 0-0.1 0.1-0.3 0-0.2 0.1-0.3 0.2-0.1 0.3-0.2 0.2-0.1 0.4-0.1 0.2 0 0.4 0.1 0.2 0.1 0.3 0.2l-0.1 0.2q-0.1-0.2-0.3-0.2-0.1-0.1-0.3-0.1-0.1 0-0.3 0.1-0.1 0-0.2 0.1-0.1 0.1-0.2 0.3 0 0.1 0 0.2 0 0.2 0 0.3 0.1 0.2 0.2 0.3 0.1 0.1 0.2 0.1 0.2 0.1 0.3 0.1z"/><path fill-rule="evenodd" class="d" d="m39 28.3l0.7-1.7h0.3l0.7 1.7h-0.2l-0.2-0.5h-0.9l-0.2 0.5zm0.5-0.7h0.7l-0.4-0.9z"/><path fill-rule="evenodd" class="e" d="m18.4 32.3v-0.9h0.4q0.1 0 0.2 0.1 0.1 0 0.1 0.2 0 0-0.1 0.1-0.1 0.1-0.1 0.1l0.2 0.4h-0.1l-0.2-0.4h-0.3v0.4zm0.4-0.8h-0.3v0.3h0.3q0 0 0.1 0 0.1-0.1 0.1-0.1 0-0.1-0.1-0.2-0.1 0-0.1 0z"/><path class="e" d="m19.7 32.3v-0.9h0.7v0.1h-0.6v0.3h0.4v0.1h-0.4v0.3h0.6v0.1z"/><path class="e" d="m21 32.2l0.1-0.1q0.1 0.1 0.1 0.1 0.1 0 0.2 0 0.1 0 0.2 0 0.1-0.1 0.1-0.1 0-0.1-0.1-0.2 0 0-0.2 0h-0.1q-0.1-0.1-0.2-0.1-0.1-0.1-0.1-0.2 0-0.1 0.1-0.2 0.1 0 0.3 0 0.1 0 0.2 0 0.1 0 0.1 0.1v0.1q-0.1-0.1-0.2-0.1-0.1 0-0.1 0-0.1 0-0.2 0-0.1 0.1-0.1 0.1 0 0.1 0.1 0.1 0 0.1 0.1 0.1h0.2q0.1 0 0.2 0.1 0.1 0 0.1 0.2 0 0-0.1 0.1 0 0 0 0.1-0.1 0-0.2 0 0 0-0.1 0-0.1 0-0.2 0-0.1-0.1-0.2-0.1z"/><path class="e" d="m22.4 31.5v-0.1h0.7v0.1h-0.3v0.8h-0.1v-0.8z"/><path fill-rule="evenodd" class="e" d="m23.7 32.3l0.4-0.9h0.1l0.4 0.9h-0.1l-0.1-0.3h-0.5l-0.1 0.3zm0.3-0.4h0.3l-0.2-0.4z"/><path class="e" d="m26 31.9q0 0.2-0.1 0.3-0.1 0.1-0.3 0.1-0.2 0-0.3-0.1-0.1-0.1-0.1-0.3v-0.5h0.1v0.5q0 0.2 0.1 0.3 0.1 0 0.2 0 0.1 0 0.2 0 0.1-0.1 0.1-0.3v-0.5h0.1z"/><path fill-rule="evenodd" class="e" d="m26.7 32.3v-0.9h0.4q0.1 0 0.2 0.1 0.1 0 0.1 0.2 0 0-0.1 0.1 0 0.1-0.1 0.1l0.2 0.4h-0.1l-0.2-0.4h-0.3v0.4zm0.4-0.8h-0.3v0.3h0.3q0.1 0 0.1 0 0.1-0.1 0.1-0.1 0-0.1-0.1-0.2 0 0-0.1 0z"/><path fill-rule="evenodd" class="e" d="m28 32.3l0.4-0.9h0.1l0.4 0.9h-0.1l-0.1-0.3h-0.5l-0.1 0.3zm0.3-0.4h0.3l-0.2-0.4z"/><path class="e" d="m29.5 31.4h0.1l0.6 0.7v-0.7h0.1v0.9h-0.1l-0.6-0.8v0.8h-0.1z"/><path class="e" d="m31 31.5v-0.1h0.7v0.1h-0.3v0.8h-0.1v-0.8z"/><text style="transform:matrix(1,0,0,1,17,26)" ></text></svg>